<svg width="17" height="25" viewBox="0 0 17 25" fill="none" xmlns="http://www.w3.org/2000/svg">
<path d="M15.7055 11.6823L1.0799 0.258898C1.04168 0.228811 0.995756 0.210113 0.947391 0.204951C0.899026 0.19979 0.850186 0.208374 0.80648 0.229719C0.762774 0.251064 0.725975 0.284303 0.700309 0.32562C0.674642 0.366936 0.661149 0.414654 0.66138 0.463293V2.97118C0.66138 3.13015 0.736 3.28264 0.859286 3.37997L12.539 12.4999L0.859286 21.6197C0.732756 21.7171 0.66138 21.8696 0.66138 22.0285V24.5364C0.66138 24.7538 0.911195 24.8738 1.0799 24.7408L15.7055 13.3174C15.8298 13.2205 15.9303 13.0964 15.9995 12.9548C16.0687 12.8131 16.1046 12.6575 16.1046 12.4999C16.1046 12.3422 16.0687 12.1866 15.9995 12.045C15.9303 11.9033 15.8298 11.7792 15.7055 11.6823Z" fill="#CDCBCB"/>
</svg>
