<svg width="20" height="14" viewBox="0 0 20 14" fill="none" xmlns="http://www.w3.org/2000/svg">
<path d="M1 10H11C11.2652 10 11.5196 9.89464 11.7071 9.70711C11.8946 9.51957 12 9.26522 12 9C12 8.73478 11.8946 8.48043 11.7071 8.29289C11.5196 8.10536 11.2652 8 11 8H1C0.734784 8 0.48043 8.10536 0.292893 8.29289C0.105357 8.48043 0 8.73478 0 9C0 9.26522 0.105357 9.51957 0.292893 9.70711C0.48043 9.89464 0.734784 10 1 10ZM1 6H11C11.2652 6 11.5196 5.89464 11.7071 5.70711C11.8946 5.51957 12 5.26522 12 5C12 4.73478 11.8946 4.48043 11.7071 4.29289C11.5196 4.10536 11.2652 4 11 4H1C0.734784 4 0.48043 4.10536 0.292893 4.29289C0.105357 4.48043 0 4.73478 0 5C0 5.26522 0.105357 5.51957 0.292893 5.70711C0.48043 5.89464 0.734784 6 1 6ZM1 2H19C19.2652 2 19.5196 1.89464 19.7071 1.70711C19.8946 1.51957 20 1.26522 20 1C20 0.734784 19.8946 0.48043 19.7071 0.292893C19.5196 0.105357 19.2652 0 19 0H1C0.734784 0 0.48043 0.105357 0.292893 0.292893C0.105357 0.48043 0 0.734784 0 1C0 1.26522 0.105357 1.51957 0.292893 1.70711C0.48043 1.89464 0.734784 2 1 2ZM19 12H1C0.734784 12 0.48043 12.1054 0.292893 12.2929C0.105357 12.4804 0 12.7348 0 13C0 13.2652 0.105357 13.5196 0.292893 13.7071C0.48043 13.8946 0.734784 14 1 14H19C19.2652 14 19.5196 13.8946 19.7071 13.7071C19.8946 13.5196 20 13.2652 20 13C20 12.7348 19.8946 12.4804 19.7071 12.2929C19.5196 12.1054 19.2652 12 19 12Z" fill="#A6A5A5"/>
</svg>
