<svg width="30" height="30" viewBox="0 0 30 30" fill="none" xmlns="http://www.w3.org/2000/svg">
<path d="M0.750151 28.5H3.00014V16.5H1.50015C0.893646 16.5 0.346678 16.1345 0.114178 15.574C-0.117794 15.0135 0.0101738 14.3685 0.439196 13.939L13.9391 0.438984C14.2321 0.146484 14.6161 0 15.0001 0C15.3841 0 15.7681 0.146484 16.0606 0.439512L20.2501 4.6285C21.6504 6.06434 20.8008 5.15613 24.75 9.1285L29.5605 13.939C29.9895 14.368 30.118 15.013 29.8855 15.574C29.6535 16.1345 29.1065 16.5 28.5 16.5H27V28.5H29.25C29.6645 28.5 30 28.8355 30 29.25C30 29.6645 29.6645 30 29.25 30H0.750151C0.335659 30 0.000154495 29.6645 0.000154495 29.25C0.000154495 28.8355 0.335659 28.5 0.750151 28.5ZM12.7501 28.5H17.2501V18H12.7501V28.5ZM4.50013 28.5H11.2501V18C11.2501 17.1715 11.9216 16.5 12.7501 16.5H17.2501C18.0786 16.5 18.7501 17.1715 18.7501 18V28.5H25.5V15H28.5L15.0001 1.5L1.50015 15H4.50013V28.5Z" fill="#A6A5A5"/>
</svg>
