<svg width="30" height="30" viewBox="0 0 30 30" fill="none" xmlns="http://www.w3.org/2000/svg">
<path d="M4.64442 26.25H25.3557C25.9501 26.2501 26.5288 26.059 27.0062 25.7048C27.4836 25.3506 27.8344 24.8522 28.0067 24.2833C28.179 23.7144 28.1637 23.1051 27.963 22.5456C27.7623 21.9861 27.3869 21.5059 26.8922 21.1762L26.565 20.9578C26.1798 20.701 25.8639 20.3531 25.6454 19.9448C25.4269 19.5366 25.3126 19.0808 25.3125 18.6178V12.1875C25.3125 9.45246 24.2261 6.82943 22.2921 4.89546C20.3581 2.96149 17.7351 1.875 15 1.875C12.265 1.875 9.64198 2.96149 7.70801 4.89546C5.77404 6.82943 4.68755 9.45246 4.68755 12.1875V18.6178C4.68813 19.0814 4.57409 19.538 4.35557 19.9469C4.13704 20.3559 3.82082 20.7044 3.43505 20.9616L3.10786 21.18C2.61491 21.5103 2.24109 21.9902 2.04148 22.549C1.84187 23.1078 1.82702 23.716 1.99913 24.2839C2.17124 24.8517 2.52119 25.3493 2.99744 25.7033C3.47369 26.0573 4.05103 26.2489 4.64442 26.25ZM15 3.75C17.237 3.75248 19.3817 4.64223 20.9635 6.22403C22.5453 7.80583 23.4351 9.9505 23.4375 12.1875V18.6178C23.437 19.3898 23.6273 20.1499 23.9916 20.8305C24.3558 21.5111 24.8827 22.091 25.5254 22.5188L25.8516 22.7362C26.0114 22.8427 26.1327 22.9977 26.1976 23.1784C26.2625 23.3591 26.2675 23.5559 26.2118 23.7397C26.1562 23.9235 26.043 24.0844 25.8888 24.1989C25.7346 24.3133 25.5477 24.375 25.3557 24.375H4.64442C4.45242 24.375 4.26551 24.3133 4.11132 24.1989C3.95713 24.0844 3.84386 23.9235 3.78824 23.7397C3.73263 23.5559 3.73763 23.3591 3.8025 23.1784C3.86738 22.9977 3.98868 22.8427 4.14848 22.7362L4.47473 22.5188C5.11736 22.091 5.64426 21.5111 6.00852 20.8305C6.37278 20.1499 6.56311 19.3898 6.56255 18.6178V12.1875C6.56503 9.9505 7.45477 7.80583 9.03657 6.22403C10.6184 4.64223 12.763 3.75248 15 3.75Z" fill="#A6A5A5"/>
<path d="M15 30C16.2427 29.9985 17.4342 29.5042 18.3129 28.6254C19.1917 27.7467 19.686 26.5552 19.6875 25.3125C19.6875 25.0639 19.5887 24.8254 19.4129 24.6496C19.2371 24.4738 18.9986 24.375 18.75 24.375C18.5014 24.375 18.2629 24.4738 18.0871 24.6496C17.9113 24.8254 17.8125 25.0639 17.8125 25.3125C17.8125 26.0584 17.5162 26.7738 16.9887 27.3012C16.4613 27.8287 15.7459 28.125 15 28.125C14.2541 28.125 13.5387 27.8287 13.0113 27.3012C12.4838 26.7738 12.1875 26.0584 12.1875 25.3125C12.1875 25.0639 12.0887 24.8254 11.9129 24.6496C11.7371 24.4738 11.4986 24.375 11.25 24.375C11.0014 24.375 10.7629 24.4738 10.5871 24.6496C10.4113 24.8254 10.3125 25.0639 10.3125 25.3125C10.314 26.5552 10.8083 27.7467 11.6871 28.6254C12.5658 29.5042 13.7573 29.9985 15 30Z" fill="#A6A5A5"/>
<path d="M15 3.75C15.2486 3.75 15.4871 3.65123 15.6629 3.47541C15.8387 3.2996 15.9375 3.06114 15.9375 2.8125V0.9375C15.9375 0.68886 15.8387 0.450403 15.6629 0.274587C15.4871 0.0987721 15.2486 0 15 0C14.7514 0 14.5129 0.0987721 14.3371 0.274587C14.1613 0.450403 14.0625 0.68886 14.0625 0.9375V2.8125C14.0625 3.06114 14.1613 3.2996 14.3371 3.47541C14.5129 3.65123 14.7514 3.75 15 3.75Z" fill="#A6A5A5"/>
</svg>
