<svg width="18" height="18" viewBox="0 0 18 18" fill="none" xmlns="http://www.w3.org/2000/svg">
<path d="M0 3.85714C0 2.83416 0.406377 1.85309 1.12973 1.12973C1.85309 0.406377 2.83416 0 3.85714 0H14.1429C15.1658 0 16.1469 0.406377 16.8703 1.12973C17.5936 1.85309 18 2.83416 18 3.85714V14.1429C18 15.1658 17.5936 16.1469 16.8703 16.8703C16.1469 17.5936 15.1658 18 14.1429 18H3.85714C2.83416 18 1.85309 17.5936 1.12973 16.8703C0.406377 16.1469 0 15.1658 0 14.1429V3.85714ZM3.85714 1.28571C3.17516 1.28571 2.5211 1.55663 2.03887 2.03887C1.55663 2.5211 1.28571 3.17516 1.28571 3.85714V5.21743L8.35714 5.14929V1.28571H3.85714ZM9.64286 1.28571V11.5714H16.7143V3.85714C16.7143 3.17516 16.4434 2.5211 15.9611 2.03887C15.4789 1.55663 14.8248 1.28571 14.1429 1.28571H9.64286ZM16.7143 12.8571H9.64286V16.7143H14.1429C14.8248 16.7143 15.4789 16.4434 15.9611 15.9611C16.4434 15.4789 16.7143 14.8248 16.7143 14.1429V12.8571ZM8.35714 16.7143V6.435L1.28571 6.50314V14.1429C1.28571 14.8248 1.55663 15.4789 2.03887 15.9611C2.5211 16.4434 3.17516 16.7143 3.85714 16.7143H8.35714Z" fill="#A6A5A5"/>
</svg>
