<svg width="20" height="20" viewBox="0 0 20 20" fill="none" xmlns="http://www.w3.org/2000/svg">
<path d="M20 10.0592C19.9995 8.13633 19.4515 6.2539 18.4207 4.63474C17.39 3.01558 15.9197 1.7275 14.1839 0.923001C12.4482 0.118502 10.5197 -0.168723 8.62674 0.0953304C6.73379 0.359385 4.95568 1.16366 3.50292 2.41293C2.05017 3.66221 0.983615 5.30416 0.429535 7.14439C-0.124546 8.98463 -0.142947 10.9461 0.376509 12.7965C0.895965 14.6469 1.93152 16.3088 3.36058 17.5855C4.78964 18.8621 6.55234 19.7 8.44 20V12.967H5.9V10.0592H8.44V7.8456C8.44 5.3302 9.93 3.92158 12.21 3.92158C13.31 3.92158 14.45 4.12281 14.45 4.12281V6.59796H13.2C11.96 6.59796 11.57 7.37271 11.57 8.16757V10.0592H14.35L13.9 12.967H11.57V20C13.9212 19.6239 16.0619 18.4162 17.6072 16.5939C19.1525 14.7717 20.001 12.4546 20 10.0592Z" fill="white"/>
</svg>
