<svg width="20" height="20" viewBox="0 0 20 20" fill="none" xmlns="http://www.w3.org/2000/svg">
<g clip-path="url(#clip0_73_12232)">
<path fill-rule="evenodd" clip-rule="evenodd" d="M10 0C7.28 0 6.94 0.03 5.88 0.08C4.8 0.1 4.08 0.28 3.45 0.53C2.78346 0.780195 2.17945 1.17263 1.68 1.68C1.16902 2.17846 0.773123 2.78255 0.52 3.45C0.230327 4.22815 0.0747858 5.04981 0.06 5.88C0.01 6.95 0 7.28 0 10C0 12.72 0.01 13.06 0.06 14.12C0.11 15.19 0.28 15.92 0.52 16.55C0.78 17.21 1.12 17.77 1.68 18.32C2.23 18.88 2.79 19.22 3.45 19.48C4.08 19.72 4.81 19.89 5.88 19.94C6.94 19.99 7.28 20 10 20C12.71 20 13.05 19.99 14.12 19.94C14.9502 19.9252 15.7718 19.7697 16.55 19.48C17.2175 19.2269 17.8215 18.831 18.32 18.32C18.8274 17.8206 19.2198 17.2165 19.47 16.55C19.72 15.92 19.89 15.19 19.93 14.12C19.98 13.06 19.99 12.72 19.99 10C19.99 7.29 19.99 6.95 19.93 5.88C19.9152 5.04981 19.7597 4.22815 19.47 3.45C19.2198 2.78346 18.8274 2.17945 18.32 1.68C17.8206 1.17263 17.2165 0.780195 16.55 0.53C15.7718 0.240326 14.9502 0.0847857 14.12 0.07C13.05 0.02 12.72 0 10 0ZM10 1.8C12.67 1.8 12.98 1.82 14.04 1.87C15.01 1.91 15.54 2.07 15.89 2.21C16.36 2.39 16.69 2.61 17.04 2.96C17.39 3.31 17.61 3.64 17.79 4.11C17.93 4.46 18.09 4.99 18.13 5.96C18.18 7.02 18.19 7.33 18.19 10C18.19 12.67 18.19 12.99 18.13 14.04C18.09 15.02 17.93 15.54 17.79 15.9C17.61 16.37 17.39 16.7 17.04 17.05C16.7175 17.3828 16.3246 17.6391 15.89 17.8C15.54 17.93 15.01 18.1 14.04 18.14C12.98 18.19 12.67 18.2 10 18.2C7.33 18.2 7.01 18.19 5.96 18.14C4.98 18.1 4.46 17.94 4.1 17.8C3.66543 17.6391 3.27246 17.3828 2.95 17.05C2.61719 16.7275 2.3609 16.3346 2.2 15.9C2.07 15.55 1.9 15.02 1.86 14.04C1.80078 12.6942 1.78078 11.347 1.8 10C1.8 7.33 1.81 7.02 1.86 5.96C1.9 4.99 2.06 4.46 2.2 4.11C2.39 3.64 2.6 3.31 2.95 2.96C3.27144 2.62357 3.66449 2.36382 4.1 2.2C4.45 2.06 4.98 1.9 5.96 1.86C7 1.82 7.33 1.8 10 1.8Z" fill="white"/>
<path fill-rule="evenodd" clip-rule="evenodd" d="M10.0002 13.3398C9.11574 13.3398 8.26747 12.9884 7.64203 12.363C7.0166 11.7375 6.66523 10.8893 6.66523 10.0048C6.66523 9.12023 7.0166 8.27196 7.64203 7.64653C8.26747 7.0211 9.11574 6.66973 10.0002 6.66973C10.8847 6.66973 11.733 7.0211 12.3584 7.64653C12.9839 8.27196 13.3352 9.12023 13.3352 10.0048C13.3352 10.8893 12.9839 11.7375 12.3584 12.363C11.733 12.9884 10.8847 13.3398 10.0002 13.3398ZM10.0002 4.86973C8.63835 4.86973 7.33224 5.41074 6.36924 6.37374C5.40624 7.33674 4.86523 8.64284 4.86523 10.0048C4.86523 11.3667 5.40624 12.6728 6.36924 13.6358C7.33224 14.5988 8.63835 15.1398 10.0002 15.1398C11.3621 15.1398 12.6682 14.5988 13.6312 13.6358C14.5942 12.6728 15.1352 11.3667 15.1352 10.0048C15.1352 8.64284 14.5942 7.33674 13.6312 6.37374C12.6682 5.41074 11.3621 4.86973 10.0002 4.86973ZM16.5302 4.66973C16.5302 4.98799 16.4038 5.29322 16.1788 5.51826C15.9537 5.7433 15.6485 5.86973 15.3302 5.86973C15.012 5.86973 14.7068 5.7433 14.4817 5.51826C14.2567 5.29322 14.1302 4.98799 14.1302 4.66973C14.1302 4.35147 14.2567 4.04625 14.4817 3.8212C14.7068 3.59616 15.012 3.46973 15.3302 3.46973C15.6485 3.46973 15.9537 3.59616 16.1788 3.8212C16.4038 4.04625 16.5302 4.35147 16.5302 4.66973Z" fill="white"/>
</g>
<defs>
<clipPath id="clip0_73_12232">
<rect width="20" height="20" fill="white"/>
</clipPath>
</defs>
</svg>
