<svg width="18" height="14" viewBox="0 0 18 14" fill="none" xmlns="http://www.w3.org/2000/svg">
<path d="M17.3334 5.33325V1.99992C17.3334 1.07492 16.5834 0.333252 15.6667 0.333252H2.33341C1.41675 0.333252 0.675081 1.07492 0.675081 1.99992V5.33325C1.59175 5.33325 2.33341 6.08325 2.33341 6.99992C2.33341 7.91658 1.59175 8.66658 0.666748 8.66658V11.9999C0.666748 12.9166 1.41675 13.6666 2.33341 13.6666H15.6667C16.5834 13.6666 17.3334 12.9166 17.3334 11.9999V8.66658C16.4167 8.66658 15.6667 7.91658 15.6667 6.99992C15.6667 6.08325 16.4167 5.33325 17.3334 5.33325ZM15.6667 4.11659C14.6751 4.69159 14.0001 5.77492 14.0001 6.99992C14.0001 8.22492 14.6751 9.30825 15.6667 9.88325V11.9999H2.33341V9.88325C3.32508 9.30825 4.00008 8.22492 4.00008 6.99992C4.00008 5.76659 3.33342 4.69159 2.34175 4.11659L2.33341 1.99992H15.6667V4.11659ZM8.16675 9.49992H9.83342V11.1666H8.16675V9.49992ZM8.16675 6.16658H9.83342V7.83325H8.16675V6.16658ZM8.16675 2.83325H9.83342V4.49992H8.16675V2.83325Z" fill="white"/>
</svg>
