<svg width="20" height="20" viewBox="0 0 20 20" fill="none" xmlns="http://www.w3.org/2000/svg">
<path d="M20 10C20 12.6522 18.9464 15.1957 17.0711 17.0711C15.1957 18.9464 12.6522 20 10 20C7.34784 20 4.8043 18.9464 2.92893 17.0711C1.05357 15.1957 0 12.6522 0 10C0 7.34784 1.05357 4.8043 2.92893 2.92893C4.8043 1.05357 7.34784 0 10 0C12.6522 0 15.1957 1.05357 17.0711 2.92893C18.9464 4.8043 20 7.34784 20 10ZM8.17 15.27C9.07272 15.2767 9.96776 15.1038 10.8031 14.7614C11.6384 14.419 12.3972 13.9139 13.0356 13.2756C13.6739 12.6372 14.179 11.8784 14.5214 11.0431C14.8638 10.2078 15.0367 9.31272 15.03 8.41V8.11C15.49 7.76 15.9 7.34 16.23 6.85C15.8 7.05 15.33 7.17 14.84 7.23C15.34 6.93 15.72 6.46 15.9 5.9C15.44 6.17 14.92 6.37 14.37 6.48C14.0065 6.09486 13.5262 5.84019 13.0035 5.75535C12.4807 5.67051 11.9446 5.76022 11.4779 6.01062C11.0112 6.26103 10.64 6.65818 10.4217 7.14068C10.2034 7.62318 10.1501 8.16416 10.27 8.68C8.27 8.58 6.49 7.62 5.3 6.16C4.99331 6.69175 4.90015 7.32019 5.03941 7.91804C5.17866 8.5159 5.53991 9.03849 6.05 9.38C5.65 9.37 5.28 9.26 4.96 9.08V9.11C4.96 10.28 5.79 11.25 6.89 11.47C6.53455 11.5668 6.16159 11.5805 5.8 11.51C5.95114 11.9908 6.24981 12.4119 6.65366 12.7134C7.05752 13.0149 7.54606 13.1817 8.05 13.19C7.03939 13.983 5.75547 14.3426 4.48 14.19C5.57857 14.9017 6.86107 15.2771 8.17 15.27Z" fill="white"/>
</svg>
